<?xml version="1.0" encoding="utf-8"?>
<svg xmlns="http://www.w3.org/2000/svg"
    xmlns:xlink="http://www.w3.org/1999/xlink"
    width="520" height="520" viewBox="-10 -10 520 520">
<defs>
<style type="text/css"><![CDATA[
line {
    stroke: #000000;
    stroke-linecap: square;
    stroke-width: 5;
}
]]></style>
</defs>
<line x1="0.0" y1="55.55555555555556" x2="55.55555555555556" y2="55.55555555555556"/>
<line x1="55.55555555555556" y1="166.66666666666669" x2="55.55555555555556" y2="222.22222222222223"/>
<line x1="55.55555555555556" y1="222.22222222222223" x2="55.55555555555556" y2="277.77777777777777"/>
<line x1="0.0" y1="333.33333333333337" x2="55.55555555555556" y2="333.33333333333337"/>
<line x1="55.55555555555556" y1="388.8888888888889" x2="55.55555555555556" y2="444.44444444444446"/>
<line x1="0.0" y1="500.0" x2="55.55555555555556" y2="500.0"/>
<line x1="55.55555555555556" y1="55.55555555555556" x2="111.11111111111111" y2="55.55555555555556"/>
<line x1="55.55555555555556" y1="111.11111111111111" x2="111.11111111111111" y2="111.11111111111111"/>
<line x1="111.11111111111111" y1="55.55555555555556" x2="111.11111111111111" y2="111.11111111111111"/>
<line x1="55.55555555555556" y1="166.66666666666669" x2="111.11111111111111" y2="166.66666666666669"/>
<line x1="55.55555555555556" y1="222.22222222222223" x2="111.11111111111111" y2="222.22222222222223"/>
<line x1="55.55555555555556" y1="333.33333333333337" x2="111.11111111111111" y2="333.33333333333337"/>
<line x1="111.11111111111111" y1="277.77777777777777" x2="111.11111111111111" y2="333.33333333333337"/>
<line x1="55.55555555555556" y1="388.8888888888889" x2="111.11111111111111" y2="388.8888888888889"/>
<line x1="111.11111111111111" y1="333.33333333333337" x2="111.11111111111111" y2="388.8888888888889"/>
<line x1="55.55555555555556" y1="500.0" x2="111.11111111111111" y2="500.0"/>
<line x1="166.66666666666669" y1="0.0" x2="166.66666666666669" y2="55.55555555555556"/>
<line x1="166.66666666666669" y1="55.55555555555556" x2="166.66666666666669" y2="111.11111111111111"/>
<line x1="111.11111111111111" y1="166.66666666666669" x2="166.66666666666669" y2="166.66666666666669"/>
<line x1="166.66666666666669" y1="111.11111111111111" x2="166.66666666666669" y2="166.66666666666669"/>
<line x1="111.11111111111111" y1="277.77777777777777" x2="166.66666666666669" y2="277.77777777777777"/>
<line x1="166.66666666666669" y1="222.22222222222223" x2="166.66666666666669" y2="277.77777777777777"/>
<line x1="166.66666666666669" y1="333.33333333333337" x2="166.66666666666669" y2="388.8888888888889"/>
<line x1="111.11111111111111" y1="444.44444444444446" x2="166.66666666666669" y2="444.44444444444446"/>
<line x1="166.66666666666669" y1="388.8888888888889" x2="166.66666666666669" y2="444.44444444444446"/>
<line x1="111.11111111111111" y1="500.0" x2="166.66666666666669" y2="500.0"/>
<line x1="166.66666666666669" y1="444.44444444444446" x2="166.66666666666669" y2="500.0"/>
<line x1="222.22222222222223" y1="55.55555555555556" x2="222.22222222222223" y2="111.11111111111111"/>
<line x1="222.22222222222223" y1="111.11111111111111" x2="222.22222222222223" y2="166.66666666666669"/>
<line x1="166.66666666666669" y1="222.22222222222223" x2="222.22222222222223" y2="222.22222222222223"/>
<line x1="222.22222222222223" y1="166.66666666666669" x2="222.22222222222223" y2="222.22222222222223"/>
<line x1="222.22222222222223" y1="277.77777777777777" x2="222.22222222222223" y2="333.33333333333337"/>
<line x1="222.22222222222223" y1="333.33333333333337" x2="222.22222222222223" y2="388.8888888888889"/>
<line x1="222.22222222222223" y1="388.8888888888889" x2="222.22222222222223" y2="444.44444444444446"/>
<line x1="166.66666666666669" y1="500.0" x2="222.22222222222223" y2="500.0"/>
<line x1="222.22222222222223" y1="55.55555555555556" x2="277.77777777777777" y2="55.55555555555556"/>
<line x1="277.77777777777777" y1="55.55555555555556" x2="277.77777777777777" y2="111.11111111111111"/>
<line x1="277.77777777777777" y1="111.11111111111111" x2="277.77777777777777" y2="166.66666666666669"/>
<line x1="277.77777777777777" y1="166.66666666666669" x2="277.77777777777777" y2="222.22222222222223"/>
<line x1="277.77777777777777" y1="277.77777777777777" x2="277.77777777777777" y2="333.33333333333337"/>
<line x1="277.77777777777777" y1="333.33333333333337" x2="277.77777777777777" y2="388.8888888888889"/>
<line x1="222.22222222222223" y1="444.44444444444446" x2="277.77777777777777" y2="444.44444444444446"/>
<line x1="277.77777777777777" y1="388.8888888888889" x2="277.77777777777777" y2="444.44444444444446"/>
<line x1="222.22222222222223" y1="500.0" x2="277.77777777777777" y2="500.0"/>
<line x1="333.33333333333337" y1="0.0" x2="333.33333333333337" y2="55.55555555555556"/>
<line x1="333.33333333333337" y1="55.55555555555556" x2="333.33333333333337" y2="111.11111111111111"/>
<line x1="333.33333333333337" y1="111.11111111111111" x2="333.33333333333337" y2="166.66666666666669"/>
<line x1="277.77777777777777" y1="222.22222222222223" x2="333.33333333333337" y2="222.22222222222223"/>
<line x1="277.77777777777777" y1="277.77777777777777" x2="333.33333333333337" y2="277.77777777777777"/>
<line x1="333.33333333333337" y1="222.22222222222223" x2="333.33333333333337" y2="277.77777777777777"/>
<line x1="333.33333333333337" y1="333.33333333333337" x2="333.33333333333337" y2="388.8888888888889"/>
<line x1="333.33333333333337" y1="388.8888888888889" x2="333.33333333333337" y2="444.44444444444446"/>
<line x1="277.77777777777777" y1="500.0" x2="333.33333333333337" y2="500.0"/>
<line x1="333.33333333333337" y1="444.44444444444446" x2="333.33333333333337" y2="500.0"/>
<line x1="388.8888888888889" y1="55.55555555555556" x2="388.8888888888889" y2="111.11111111111111"/>
<line x1="333.33333333333337" y1="166.66666666666669" x2="388.8888888888889" y2="166.66666666666669"/>
<line x1="333.33333333333337" y1="222.22222222222223" x2="388.8888888888889" y2="222.22222222222223"/>
<line x1="333.33333333333337" y1="333.33333333333337" x2="388.8888888888889" y2="333.33333333333337"/>
<line x1="388.8888888888889" y1="277.77777777777777" x2="388.8888888888889" y2="333.33333333333337"/>
<line x1="388.8888888888889" y1="388.8888888888889" x2="388.8888888888889" y2="444.44444444444446"/>
<line x1="333.33333333333337" y1="500.0" x2="388.8888888888889" y2="500.0"/>
<line x1="444.44444444444446" y1="0.0" x2="444.44444444444446" y2="55.55555555555556"/>
<line x1="388.8888888888889" y1="111.11111111111111" x2="444.44444444444446" y2="111.11111111111111"/>
<line x1="444.44444444444446" y1="111.11111111111111" x2="444.44444444444446" y2="166.66666666666669"/>
<line x1="388.8888888888889" y1="222.22222222222223" x2="444.44444444444446" y2="222.22222222222223"/>
<line x1="444.44444444444446" y1="166.66666666666669" x2="444.44444444444446" y2="222.22222222222223"/>
<line x1="444.44444444444446" y1="222.22222222222223" x2="444.44444444444446" y2="277.77777777777777"/>
<line x1="444.44444444444446" y1="277.77777777777777" x2="444.44444444444446" y2="333.33333333333337"/>
<line x1="388.8888888888889" y1="388.8888888888889" x2="444.44444444444446" y2="388.8888888888889"/>
<line x1="444.44444444444446" y1="333.33333333333337" x2="444.44444444444446" y2="388.8888888888889"/>
<line x1="388.8888888888889" y1="500.0" x2="444.44444444444446" y2="500.0"/>
<line x1="500.0" y1="0.0" x2="500.0" y2="55.55555555555556"/>
<line x1="500.0" y1="55.55555555555556" x2="500.0" y2="111.11111111111111"/>
<line x1="500.0" y1="111.11111111111111" x2="500.0" y2="166.66666666666669"/>
<line x1="500.0" y1="166.66666666666669" x2="500.0" y2="222.22222222222223"/>
<line x1="500.0" y1="222.22222222222223" x2="500.0" y2="277.77777777777777"/>
<line x1="500.0" y1="277.77777777777777" x2="500.0" y2="333.33333333333337"/>
<line x1="500.0" y1="333.33333333333337" x2="500.0" y2="388.8888888888889"/>
<line x1="444.44444444444446" y1="444.44444444444446" x2="500.0" y2="444.44444444444446"/>
<line x1="500.0" y1="388.8888888888889" x2="500.0" y2="444.44444444444446"/>
<line x1="500.0" y1="444.44444444444446" x2="500.0" y2="500.0"/>
<line x1="0.0" y1="0.0" x2="55.55555555555556" y2="0.0"/>
<line x1="55.55555555555556" y1="0.0" x2="111.11111111111111" y2="0.0"/>
<line x1="111.11111111111111" y1="0.0" x2="166.66666666666669" y2="0.0"/>
<line x1="166.66666666666669" y1="0.0" x2="222.22222222222223" y2="0.0"/>
<line x1="222.22222222222223" y1="0.0" x2="277.77777777777777" y2="0.0"/>
<line x1="277.77777777777777" y1="0.0" x2="333.33333333333337" y2="0.0"/>
<line x1="333.33333333333337" y1="0.0" x2="388.8888888888889" y2="0.0"/>
<line x1="388.8888888888889" y1="0.0" x2="444.44444444444446" y2="0.0"/>
<line x1="444.44444444444446" y1="0.0" x2="500.0" y2="0.0"/>
<line x1="0.0" y1="55.55555555555556" x2="0.0" y2="111.11111111111111"/>
<line x1="0.0" y1="111.11111111111111" x2="0.0" y2="166.66666666666669"/>
<line x1="0.0" y1="166.66666666666669" x2="0.0" y2="222.22222222222223"/>
<line x1="0.0" y1="222.22222222222223" x2="0.0" y2="277.77777777777777"/>
<line x1="0.0" y1="277.77777777777777" x2="0.0" y2="333.33333333333337"/>
<line x1="0.0" y1="333.33333333333337" x2="0.0" y2="388.8888888888889"/>
<line x1="0.0" y1="388.8888888888889" x2="0.0" y2="444.44444444444446"/>
<line x1="0.0" y1="444.44444444444446" x2="0.0" y2="500.0"/>
</svg>
